<svg t="1771001799880" class="icon" viewBox="0 0 1024 1024" version="1.1" xmlns="http://www.w3.org/2000/svg" p-id="1568" width="200" height="200"><path d="M511.72383184 181.56347628l25.13130298-43.35840185c15.46541722-27.06448014 49.98643779-36.17802957 77.05091793-20.71261236 27.06448014 15.46541722 36.17802957 49.98643779 20.71261234 77.05091793l-241.64714404 418.39476939h174.8144482c56.61447375 0 88.37381268 66.55652767 63.79484601 112.67661117h-512.29194534c-31.2070026 0-56.33830558-25.13130297-56.33830557-56.3383056 0-31.2070026 25.13130297-56.33830558 56.33830557-56.33830557h143.60744561l183.92799762-318.69806196-57.44297824-99.69670743c-15.46541722-27.06448014-6.35186779-61.30933253 20.71261234-77.05091793 27.06448014-15.46541722 61.30933253-6.35186779 77.05091793 20.71261236l24.57896666 43.35840185z m-217.34434556 602.04659884l-54.12896025 93.89717597c-15.46541722 27.06448014-49.98643779 36.17802957-77.05091793 20.71261234-27.06448014-15.46541722-36.17802957-49.98643779-20.71261235-77.05091792l40.32055204-69.59437748c45.291579-14.08457639 82.29811305-3.31401797 111.57193849 32.03550709z m466.44803002-170.39575756h146.64529541c31.2070026 0 56.33830558 25.13130297 56.33830559 56.33830557 0 31.2070026-25.13130297 56.33830558-56.33830559 56.3383056h-81.46960854l54.95746474 95.27801678c15.46541722 27.06448014 6.35186779 61.30933253-20.71261234 77.05091792-27.06448014 15.46541722-61.30933253 6.35186779-77.05091794-20.71261234-92.51633514-160.45370365-162.11071263-280.58685525-208.2307961-360.67562298-47.22475615-81.46960857-13.53224006-163.21538528 19.88410786-190.83220175 37.00653407 63.51867787 92.24016697 159.34903097 165.97706691 287.2148912zM512-130.23038157z" fill="#ffffff" p-id="1569"></path></svg>